<mxfile host="app.diagrams.net" agent="Mozilla/5.0 (Windows NT 10.0; Win64; x64) AppleWebKit/537.36 (KHTML, like Gecko) Chrome/128.0.0.0 Safari/537.36" version="24.7.16" pages="2">
  <diagram id="C5RBs43oDa-KdzZeNtuy" name="Page-1">
    <mxGraphModel dx="1964" dy="649" grid="1" gridSize="10" guides="1" tooltips="1" connect="1" arrows="1" fold="1" page="1" pageScale="1" pageWidth="827" pageHeight="1169" math="0" shadow="0">
      <root>
        <mxCell id="WIyWlLk6GJQsqaUBKTNV-0" />
        <mxCell id="WIyWlLk6GJQsqaUBKTNV-1" parent="WIyWlLk6GJQsqaUBKTNV-0" />
        <mxCell id="TU6LFwRzbV70lexB2ko9-0" value="AS-IS PROCESS FOR DNC (TAGS AND RANKS)" style="swimlane;childLayout=stackLayout;resizeParent=1;resizeParentMax=0;horizontal=1;startSize=20;horizontalStack=0;html=1;" vertex="1" parent="WIyWlLk6GJQsqaUBKTNV-1">
          <mxGeometry x="170" y="60" width="480" height="260" as="geometry" />
        </mxCell>
        <mxCell id="TU6LFwRzbV70lexB2ko9-1" value="DISCHEM" style="swimlane;startSize=20;horizontal=0;html=1;" vertex="1" parent="TU6LFwRzbV70lexB2ko9-0">
          <mxGeometry y="20" width="480" height="120" as="geometry" />
        </mxCell>
        <mxCell id="TU6LFwRzbV70lexB2ko9-6" value="" style="edgeStyle=orthogonalEdgeStyle;rounded=0;orthogonalLoop=1;jettySize=auto;html=1;" edge="1" parent="TU6LFwRzbV70lexB2ko9-1" source="TU6LFwRzbV70lexB2ko9-4" target="TU6LFwRzbV70lexB2ko9-5">
          <mxGeometry relative="1" as="geometry" />
        </mxCell>
        <mxCell id="TU6LFwRzbV70lexB2ko9-4" value="Start" style="strokeWidth=2;html=1;shape=mxgraph.flowchart.start_1;whiteSpace=wrap;" vertex="1" parent="TU6LFwRzbV70lexB2ko9-1">
          <mxGeometry x="40" y="20" width="50" height="20" as="geometry" />
        </mxCell>
        <mxCell id="TU6LFwRzbV70lexB2ko9-5" value="Loads contacts onto Dripcel" style="rounded=1;whiteSpace=wrap;html=1;" vertex="1" parent="TU6LFwRzbV70lexB2ko9-1">
          <mxGeometry x="25" y="60" width="80" height="40" as="geometry" />
        </mxCell>
        <mxCell id="TU6LFwRzbV70lexB2ko9-51" value="" style="edgeStyle=orthogonalEdgeStyle;rounded=0;orthogonalLoop=1;jettySize=auto;html=1;" edge="1" parent="TU6LFwRzbV70lexB2ko9-1" source="TU6LFwRzbV70lexB2ko9-15" target="TU6LFwRzbV70lexB2ko9-50">
          <mxGeometry relative="1" as="geometry" />
        </mxCell>
        <mxCell id="TU6LFwRzbV70lexB2ko9-15" value="Builds segments for MI&amp;amp;GAP" style="whiteSpace=wrap;html=1;rounded=1;arcSize=22;" vertex="1" parent="TU6LFwRzbV70lexB2ko9-1">
          <mxGeometry x="130" y="50" width="90" height="50" as="geometry" />
        </mxCell>
        <mxCell id="TU6LFwRzbV70lexB2ko9-50" value="End" style="strokeWidth=2;html=1;shape=mxgraph.flowchart.terminator;whiteSpace=wrap;" vertex="1" parent="TU6LFwRzbV70lexB2ko9-1">
          <mxGeometry x="244" y="55" width="66" height="40" as="geometry" />
        </mxCell>
        <mxCell id="TU6LFwRzbV70lexB2ko9-2" value="DRIPCEL" style="swimlane;startSize=20;horizontal=0;html=1;" vertex="1" parent="TU6LFwRzbV70lexB2ko9-0">
          <mxGeometry y="140" width="480" height="120" as="geometry" />
        </mxCell>
        <mxCell id="TU6LFwRzbV70lexB2ko9-9" value="Receives contacts from Dischem" style="whiteSpace=wrap;html=1;rounded=1;" vertex="1" parent="TU6LFwRzbV70lexB2ko9-2">
          <mxGeometry x="25" y="40" width="85" height="50" as="geometry" />
        </mxCell>
        <mxCell id="TU6LFwRzbV70lexB2ko9-10" value="" style="edgeStyle=orthogonalEdgeStyle;rounded=0;orthogonalLoop=1;jettySize=auto;html=1;exitX=0.5;exitY=1;exitDx=0;exitDy=0;" edge="1" parent="TU6LFwRzbV70lexB2ko9-0" source="TU6LFwRzbV70lexB2ko9-5" target="TU6LFwRzbV70lexB2ko9-9">
          <mxGeometry relative="1" as="geometry">
            <Array as="points">
              <mxPoint x="68" y="120" />
            </Array>
          </mxGeometry>
        </mxCell>
        <mxCell id="TU6LFwRzbV70lexB2ko9-16" value="" style="edgeStyle=orthogonalEdgeStyle;rounded=0;orthogonalLoop=1;jettySize=auto;html=1;" edge="1" parent="TU6LFwRzbV70lexB2ko9-0" source="TU6LFwRzbV70lexB2ko9-9" target="TU6LFwRzbV70lexB2ko9-15">
          <mxGeometry relative="1" as="geometry" />
        </mxCell>
        <mxCell id="TU6LFwRzbV70lexB2ko9-13" value="Each contact is&lt;div&gt;assigned to a tag,&lt;/div&gt;&lt;div&gt;this helps separate&lt;/div&gt;&lt;div&gt;or categorises the&amp;nbsp;&lt;/div&gt;&lt;div&gt;contact number into&lt;/div&gt;&lt;div&gt;two groups(MI&amp;amp;GAP).&lt;/div&gt;&lt;div&gt;Tags are ranked 1-10 based&lt;/div&gt;&lt;div&gt;on how likely a person takes&lt;/div&gt;&lt;div&gt;up a new policy&lt;/div&gt;&lt;div&gt;&lt;br&gt;&lt;/div&gt;&lt;div&gt;&lt;br&gt;&lt;/div&gt;&lt;div&gt;&lt;br&gt;&lt;/div&gt;" style="strokeWidth=2;html=1;shape=mxgraph.flowchart.annotation_1;align=left;pointerEvents=1;" vertex="1" parent="WIyWlLk6GJQsqaUBKTNV-1">
          <mxGeometry x="-10" y="140" width="150" height="180" as="geometry" />
        </mxCell>
        <mxCell id="TU6LFwRzbV70lexB2ko9-14" style="edgeStyle=orthogonalEdgeStyle;rounded=0;orthogonalLoop=1;jettySize=auto;html=1;" edge="1" parent="WIyWlLk6GJQsqaUBKTNV-1" source="TU6LFwRzbV70lexB2ko9-9" target="TU6LFwRzbV70lexB2ko9-13">
          <mxGeometry relative="1" as="geometry">
            <Array as="points">
              <mxPoint x="220" y="230" />
            </Array>
          </mxGeometry>
        </mxCell>
        <mxCell id="TU6LFwRzbV70lexB2ko9-17" value="&lt;span style=&quot;line-height: 107%; font-family: Arial, sans-serif;&quot;&gt;&lt;font style=&quot;font-size: 11px;&quot;&gt;for Gap Dischem build a&lt;/font&gt;&lt;/span&gt;&lt;div&gt;&lt;span style=&quot;line-height: 107%; font-family: Arial, sans-serif;&quot;&gt;&lt;font style=&quot;font-size: 11px;&quot;&gt;&amp;nbsp;segment based on&lt;/font&gt;&lt;/span&gt;&lt;span style=&quot;font-size:14.0pt;line-height:107%;&lt;br/&gt;font-family:&amp;quot;Arial&amp;quot;,sans-serif;mso-fareast-font-family:Calibri;mso-fareast-theme-font:&lt;br/&gt;minor-latin;mso-ansi-language:EN-ZA;mso-fareast-language:EN-US;mso-bidi-language:&lt;br/&gt;AR-SA&quot;&gt;&amp;nbsp;&lt;/span&gt;&lt;/div&gt;&lt;div&gt;&lt;span style=&quot;line-height: 107%; font-family: Arial, sans-serif;&quot;&gt;&lt;font style=&quot;font-size: 11px;&quot;&gt;age than rank,&amp;nbsp;&lt;/font&gt;&lt;/span&gt;&lt;/div&gt;&lt;div&gt;&lt;span style=&quot;line-height: 107%; font-family: Arial, sans-serif;&quot;&gt;&lt;font style=&quot;font-size: 11px;&quot;&gt;while MI is only&lt;br&gt;based&amp;nbsp;&lt;/font&gt;&lt;/span&gt;&lt;span style=&quot;font-size: 11px; font-family: Arial, sans-serif; background-color: initial;&quot;&gt;on rank&lt;/span&gt;&lt;/div&gt;" style="strokeWidth=2;html=1;shape=mxgraph.flowchart.annotation_1;align=left;pointerEvents=1;" vertex="1" parent="WIyWlLk6GJQsqaUBKTNV-1">
          <mxGeometry x="680" y="90" width="130" height="100" as="geometry" />
        </mxCell>
        <mxCell id="TU6LFwRzbV70lexB2ko9-18" style="edgeStyle=orthogonalEdgeStyle;rounded=0;orthogonalLoop=1;jettySize=auto;html=1;entryX=0;entryY=0.3;entryDx=0;entryDy=0;entryPerimeter=0;" edge="1" parent="WIyWlLk6GJQsqaUBKTNV-1" source="TU6LFwRzbV70lexB2ko9-15" target="TU6LFwRzbV70lexB2ko9-17">
          <mxGeometry relative="1" as="geometry">
            <Array as="points">
              <mxPoint x="460" y="120" />
              <mxPoint x="460" y="120" />
            </Array>
          </mxGeometry>
        </mxCell>
        <mxCell id="TU6LFwRzbV70lexB2ko9-19" value="AS-IS PROCESS FOR DNC(SMS)" style="swimlane;childLayout=stackLayout;resizeParent=1;resizeParentMax=0;horizontal=1;startSize=20;horizontalStack=0;html=1;" vertex="1" parent="WIyWlLk6GJQsqaUBKTNV-1">
          <mxGeometry x="173" y="380" width="720" height="300" as="geometry" />
        </mxCell>
        <mxCell id="TU6LFwRzbV70lexB2ko9-20" value="DISCHEM&amp;nbsp;" style="swimlane;startSize=20;horizontal=0;html=1;" vertex="1" parent="TU6LFwRzbV70lexB2ko9-19">
          <mxGeometry y="20" width="720" height="280" as="geometry" />
        </mxCell>
        <mxCell id="TU6LFwRzbV70lexB2ko9-26" value="" style="edgeStyle=orthogonalEdgeStyle;rounded=0;orthogonalLoop=1;jettySize=auto;html=1;" edge="1" parent="TU6LFwRzbV70lexB2ko9-20" source="TU6LFwRzbV70lexB2ko9-24" target="TU6LFwRzbV70lexB2ko9-25">
          <mxGeometry relative="1" as="geometry">
            <Array as="points">
              <mxPoint x="74" y="50" />
              <mxPoint x="74" y="50" />
            </Array>
          </mxGeometry>
        </mxCell>
        <mxCell id="TU6LFwRzbV70lexB2ko9-24" value="Start" style="strokeWidth=2;html=1;shape=mxgraph.flowchart.start_1;whiteSpace=wrap;" vertex="1" parent="TU6LFwRzbV70lexB2ko9-20">
          <mxGeometry x="47" y="10" width="53" height="30" as="geometry" />
        </mxCell>
        <mxCell id="TU6LFwRzbV70lexB2ko9-30" value="" style="edgeStyle=orthogonalEdgeStyle;rounded=0;orthogonalLoop=1;jettySize=auto;html=1;" edge="1" parent="TU6LFwRzbV70lexB2ko9-20" source="TU6LFwRzbV70lexB2ko9-25" target="TU6LFwRzbV70lexB2ko9-27">
          <mxGeometry relative="1" as="geometry">
            <Array as="points">
              <mxPoint x="87" y="130" />
              <mxPoint x="87" y="130" />
            </Array>
          </mxGeometry>
        </mxCell>
        <mxCell id="TU6LFwRzbV70lexB2ko9-25" value="Sends SMS&#39;s to a grouping of properties called &quot;campaigns&quot;&amp;nbsp;" style="rounded=1;whiteSpace=wrap;html=1;" vertex="1" parent="TU6LFwRzbV70lexB2ko9-20">
          <mxGeometry x="27" y="70" width="133" height="50" as="geometry" />
        </mxCell>
        <mxCell id="TU6LFwRzbV70lexB2ko9-32" value="" style="edgeStyle=orthogonalEdgeStyle;rounded=0;orthogonalLoop=1;jettySize=auto;html=1;" edge="1" parent="TU6LFwRzbV70lexB2ko9-20" source="TU6LFwRzbV70lexB2ko9-27" target="TU6LFwRzbV70lexB2ko9-31">
          <mxGeometry relative="1" as="geometry" />
        </mxCell>
        <mxCell id="TU6LFwRzbV70lexB2ko9-27" value="Loads up various messaging method" style="rounded=1;whiteSpace=wrap;html=1;" vertex="1" parent="TU6LFwRzbV70lexB2ko9-20">
          <mxGeometry x="27" y="180" width="120" height="60" as="geometry" />
        </mxCell>
        <mxCell id="TU6LFwRzbV70lexB2ko9-41" value="" style="edgeStyle=orthogonalEdgeStyle;rounded=0;orthogonalLoop=1;jettySize=auto;html=1;" edge="1" parent="TU6LFwRzbV70lexB2ko9-20" source="TU6LFwRzbV70lexB2ko9-31" target="TU6LFwRzbV70lexB2ko9-40">
          <mxGeometry relative="1" as="geometry" />
        </mxCell>
        <mxCell id="TU6LFwRzbV70lexB2ko9-31" value="Sends messages to all contacts randomly" style="rounded=1;whiteSpace=wrap;html=1;" vertex="1" parent="TU6LFwRzbV70lexB2ko9-20">
          <mxGeometry x="207" y="180" width="120" height="60" as="geometry" />
        </mxCell>
        <mxCell id="TU6LFwRzbV70lexB2ko9-45" value="" style="edgeStyle=orthogonalEdgeStyle;rounded=0;orthogonalLoop=1;jettySize=auto;html=1;" edge="1" parent="TU6LFwRzbV70lexB2ko9-20" source="TU6LFwRzbV70lexB2ko9-38" target="TU6LFwRzbV70lexB2ko9-44">
          <mxGeometry relative="1" as="geometry">
            <Array as="points">
              <mxPoint x="517" y="70" />
              <mxPoint x="517" y="70" />
            </Array>
          </mxGeometry>
        </mxCell>
        <mxCell id="TU6LFwRzbV70lexB2ko9-38" value="The list of people who opted out (DNC List)" style="strokeWidth=2;html=1;shape=mxgraph.flowchart.database;whiteSpace=wrap;" vertex="1" parent="TU6LFwRzbV70lexB2ko9-20">
          <mxGeometry x="447" y="10" width="103" height="130" as="geometry" />
        </mxCell>
        <mxCell id="TU6LFwRzbV70lexB2ko9-43" value="" style="edgeStyle=orthogonalEdgeStyle;rounded=0;orthogonalLoop=1;jettySize=auto;html=1;" edge="1" parent="TU6LFwRzbV70lexB2ko9-20" source="TU6LFwRzbV70lexB2ko9-40" target="TU6LFwRzbV70lexB2ko9-38">
          <mxGeometry relative="1" as="geometry" />
        </mxCell>
        <mxCell id="TU6LFwRzbV70lexB2ko9-40" value="Sends list of people who opted out" style="rounded=1;whiteSpace=wrap;html=1;" vertex="1" parent="TU6LFwRzbV70lexB2ko9-20">
          <mxGeometry x="438.5" y="180" width="120" height="60" as="geometry" />
        </mxCell>
        <mxCell id="TU6LFwRzbV70lexB2ko9-42" value="API:Webhooks" style="text;html=1;align=center;verticalAlign=middle;resizable=0;points=[];autosize=1;strokeColor=none;fillColor=none;" vertex="1" parent="TU6LFwRzbV70lexB2ko9-20">
          <mxGeometry x="327" y="185" width="100" height="30" as="geometry" />
        </mxCell>
        <mxCell id="TU6LFwRzbV70lexB2ko9-54" value="" style="edgeStyle=orthogonalEdgeStyle;rounded=0;orthogonalLoop=1;jettySize=auto;html=1;" edge="1" parent="TU6LFwRzbV70lexB2ko9-20" source="TU6LFwRzbV70lexB2ko9-44" target="TU6LFwRzbV70lexB2ko9-53">
          <mxGeometry relative="1" as="geometry" />
        </mxCell>
        <mxCell id="TU6LFwRzbV70lexB2ko9-44" value="Sends out the automated messages" style="rounded=1;whiteSpace=wrap;html=1;" vertex="1" parent="TU6LFwRzbV70lexB2ko9-20">
          <mxGeometry x="587" y="40" width="120" height="60" as="geometry" />
        </mxCell>
        <mxCell id="TU6LFwRzbV70lexB2ko9-53" value="End" style="strokeWidth=2;html=1;shape=mxgraph.flowchart.terminator;whiteSpace=wrap;" vertex="1" parent="TU6LFwRzbV70lexB2ko9-20">
          <mxGeometry x="617.75" y="140" width="58.5" height="40" as="geometry" />
        </mxCell>
        <mxCell id="TU6LFwRzbV70lexB2ko9-46" value="&lt;span style=&quot;line-height: 107%; font-family: Arial, sans-serif;&quot;&gt;&lt;font style=&quot;font-size: 11px;&quot;&gt;we automate the messages&lt;/font&gt;&lt;/span&gt;&lt;div&gt;&lt;span style=&quot;line-height: 107%; font-family: Arial, sans-serif;&quot;&gt;&lt;font style=&quot;font-size: 11px;&quot;&gt;&amp;nbsp;based&amp;nbsp;&lt;/font&gt;&lt;/span&gt;&lt;span style=&quot;font-family: Arial, sans-serif; background-color: initial;&quot;&gt;&lt;font style=&quot;font-size: 11px;&quot;&gt;on how many we want to&amp;nbsp;&lt;/font&gt;&lt;/span&gt;&lt;/div&gt;&lt;div&gt;&lt;span style=&quot;font-family: Arial, sans-serif; background-color: initial;&quot;&gt;&lt;font style=&quot;font-size: 11px;&quot;&gt;send per day&amp;nbsp;&lt;/font&gt;&lt;/span&gt;&lt;span style=&quot;font-family: Arial, sans-serif; background-color: initial;&quot;&gt;&lt;font style=&quot;font-size: 11px;&quot;&gt;and either at a fixed&amp;nbsp;&lt;/font&gt;&lt;/span&gt;&lt;/div&gt;&lt;div&gt;&lt;span style=&quot;font-family: Arial, sans-serif; background-color: initial;&quot;&gt;&lt;font style=&quot;font-size: 11px;&quot;&gt;time of day or&amp;nbsp;&lt;/font&gt;&lt;/span&gt;&lt;span style=&quot;font-family: Arial, sans-serif; background-color: initial;&quot;&gt;&lt;font style=&quot;font-size: 11px;&quot;&gt;allow the system to&amp;nbsp;&lt;/font&gt;&lt;/span&gt;&lt;/div&gt;&lt;div&gt;&lt;span style=&quot;font-family: Arial, sans-serif; background-color: initial;&quot;&gt;&lt;font style=&quot;font-size: 11px;&quot;&gt;determine the best time of day,&amp;nbsp;&lt;/font&gt;&lt;/span&gt;&lt;/div&gt;&lt;div&gt;&lt;span style=&quot;font-family: Arial, sans-serif; background-color: initial;&quot;&gt;&lt;font style=&quot;font-size: 11px;&quot;&gt;based on response rates.&lt;/font&gt;&lt;/span&gt;&lt;/div&gt;" style="strokeWidth=2;html=1;shape=mxgraph.flowchart.annotation_1;align=left;pointerEvents=1;" vertex="1" parent="WIyWlLk6GJQsqaUBKTNV-1">
          <mxGeometry x="1000" y="395" width="170" height="150" as="geometry" />
        </mxCell>
        <mxCell id="TU6LFwRzbV70lexB2ko9-47" style="edgeStyle=orthogonalEdgeStyle;rounded=0;orthogonalLoop=1;jettySize=auto;html=1;entryX=0;entryY=0.5;entryDx=0;entryDy=0;entryPerimeter=0;" edge="1" parent="WIyWlLk6GJQsqaUBKTNV-1" source="TU6LFwRzbV70lexB2ko9-44" target="TU6LFwRzbV70lexB2ko9-46">
          <mxGeometry relative="1" as="geometry" />
        </mxCell>
        <mxCell id="TU6LFwRzbV70lexB2ko9-48" value="&lt;span style=&quot;line-height: 107%; font-family: Arial, sans-serif;&quot;&gt;&lt;font style=&quot;font-size: 11px;&quot;&gt;its built based on the ranks&amp;nbsp;&lt;/font&gt;&lt;/span&gt;&lt;div&gt;&lt;span style=&quot;line-height: 107%; font-family: Arial, sans-serif;&quot;&gt;&lt;font style=&quot;font-size: 11px;&quot;&gt;assigned to MI and Gap and&amp;nbsp;&lt;/font&gt;&lt;/span&gt;&lt;/div&gt;&lt;div&gt;&lt;span style=&quot;line-height: 107%; font-family: Arial, sans-serif;&quot;&gt;&lt;font style=&quot;font-size: 11px;&quot;&gt;any other&lt;br&gt;required targeting criteria.&lt;/font&gt;&lt;/span&gt;&lt;/div&gt;&lt;div&gt;&lt;span style=&quot;font-family: Arial, sans-serif; background-color: initial;&quot;&gt;&lt;font style=&quot;font-size: 11px;&quot;&gt;The recipients under a campaign&lt;/font&gt;&lt;/span&gt;&lt;span style=&quot;font-family: Arial, sans-serif; font-size: 14pt; background-color: initial;&quot;&gt;,&amp;nbsp;&lt;/span&gt;&lt;span style=&quot;text-align: justify; text-indent: -18pt; background-color: initial; line-height: 150%; font-family: Arial, sans-serif;&quot;&gt;&lt;font style=&quot;font-size: 11px;&quot;&gt;are&lt;br&gt;filtered based on these criteria&amp;nbsp;&lt;/font&gt;&lt;/span&gt;&lt;/div&gt;&lt;div&gt;&lt;span style=&quot;text-align: justify; text-indent: -18pt; background-color: initial; line-height: 150%; font-family: Arial, sans-serif;&quot;&gt;&lt;font style=&quot;font-size: 11px;&quot;&gt;from the tags and segments&lt;/font&gt;&lt;/span&gt;&lt;span style=&quot;text-align: justify; text-indent: -18pt; background-color: initial; font-size: 14pt; line-height: 150%; font-family: Arial, sans-serif;&quot;&gt;.&lt;/span&gt;&lt;/div&gt;&lt;p style=&quot;text-align:justify;text-indent:-18.0pt;&lt;br/&gt;line-height:150%;mso-list:l0 level1 lfo1&quot; class=&quot;MsoListParagraph&quot;&gt;&lt;span style=&quot;font-size:14.0pt;line-height:150%;font-family:&amp;quot;Arial&amp;quot;,sans-serif&quot;&gt;&lt;/span&gt;&lt;/p&gt;" style="strokeWidth=2;html=1;shape=mxgraph.flowchart.annotation_1;align=left;pointerEvents=1;" vertex="1" parent="WIyWlLk6GJQsqaUBKTNV-1">
          <mxGeometry x="-270" y="425" width="190" height="140" as="geometry" />
        </mxCell>
        <mxCell id="TU6LFwRzbV70lexB2ko9-49" style="edgeStyle=orthogonalEdgeStyle;rounded=0;orthogonalLoop=1;jettySize=auto;html=1;" edge="1" parent="WIyWlLk6GJQsqaUBKTNV-1" source="TU6LFwRzbV70lexB2ko9-25" target="TU6LFwRzbV70lexB2ko9-48">
          <mxGeometry relative="1" as="geometry" />
        </mxCell>
      </root>
    </mxGraphModel>
  </diagram>
  <diagram id="5kkS8kKpJ2nSM54J6zVw" name="Page-2">
    <mxGraphModel grid="1" page="1" gridSize="10" guides="1" tooltips="1" connect="1" arrows="1" fold="1" pageScale="1" pageWidth="850" pageHeight="1100" math="0" shadow="0">
      <root>
        <mxCell id="0" />
        <mxCell id="1" parent="0" />
      </root>
    </mxGraphModel>
  </diagram>
</mxfile>
